PathFileType	4	(X/Y/Z)	C:\Users\Basilio\Documents\Thesis Gigler\squatting_fais\c3dfiles\058\SLS_back_pre2\markers_experimental.trc
DataRate	CameraRate	NumFrames	NumMarkers	Units	OrigDataRate	OrigDataStartFrame	OrigNumFrames
200.000000	200.000000	4	61	mm	200.000000	371	1487
Frame#	Time	FHD			LBHD			RBHD			C7			T10			CLAV			LSHO			LUUPA			LMUPA			LDUPA			LLEP			LMEP			LUL			LRFIN			RSHO			RUPA1			RMUPA			RDUPA			RLEP			RMEP			RRAD			RUL			RUFIN			LASI			RASI			USACR			LSACR			RSACR			LTHI1			LTHI2			LTHI3			LTHI4			LLFC			LMFC			LTIB1			LTIB2			LTIB3			LTIB4			LLMAL			LMMAL			LHEE			LMT1			LMT5			RTHI			RTHI2			RTHI3			RTHI4			RLFC			RMFC			RTIB1			RTIB2			RTIB3			RTIB4			RLMAL			RMMAL			RHEE			RMT1			RMT2			RMT5			LRAD			LMT2			
		X1	Y1	Z1	X2	Y2	Z2	X3	Y3	Z3	X4	Y4	Z4	X5	Y5	Z5	X6	Y6	Z6	X7	Y7	Z7	X8	Y8	Z8	X9	Y9	Z9	X10	Y10	Z10	X11	Y11	Z11	X12	Y12	Z12	X13	Y13	Z13	X14	Y14	Z14	X15	Y15	Z15	X16	Y16	Z16	X17	Y17	Z17	X18	Y18	Z18	X19	Y19	Z19	X20	Y20	Z20	X21	Y21	Z21	X22	Y22	Z22	X23	Y23	Z23	X24	Y24	Z24	X25	Y25	Z25	X26	Y26	Z26	X27	Y27	Z27	X28	Y28	Z28	X29	Y29	Z29	X30	Y30	Z30	X31	Y31	Z31	X32	Y32	Z32	X33	Y33	Z33	X34	Y34	Z34	X35	Y35	Z35	X36	Y36	Z36	X37	Y37	Z37	X38	Y38	Z38	X39	Y39	Z39	X40	Y40	Z40	X41	Y41	Z41	X42	Y42	Z42	X43	Y43	Z43	X44	Y44	Z44	X45	Y45	Z45	X46	Y46	Z46	X47	Y47	Z47	X48	Y48	Z48	X49	Y49	Z49	X50	Y50	Z50	X51	Y51	Z51	X52	Y52	Z52	X53	Y53	Z53	X54	Y54	Z54	X55	Y55	Z55	X56	Y56	Z56	X57	Y57	Z57	X58	Y58	Z58	X59	Y59	Z59	X60	Y60	Z60	X61	Y61	Z61	

372	1.855	-234.1289520263672	1791.061157226563	-740.8118896484376	-388.8979797363282	1758.393310546875	-828.231384277344	-209.6667022705079	1798.682495117188	-881.395935058594	-406.6089782714845	1588.809448242188	-857.6600341796877	-401.9258422851564	1276.509765625	-854.3960571289065	-251.6824951171876	1539.335571289063	-818.2294921875002	-242.2570343017579	1589.701782226563	-988.3193969726565	-200.2928314208985	1396.723022460938	-1121.099487304688	-151.0966186523438	1405.940185546875	-1116.530151367188	-151.939208984375	1347.643676757813	-1134.328491210938	-105.5870132446289	1295.264770507813	-1143.73876953125	-128.6417694091797	1250.22412109375	-1094.462280273438	96.4951095581055	1120.419799804688	-1179.927124023438	199.1775970458985	1079.738647460938	-1131.4970703125	-312.4621276855469	1580.057983398438	-651.3696899414064	-312.3464660644532	1359.5908203125	-540.5463256835939	-262.7974548339844	1365.1640625	-539.2456665039064	-269.0217285156251	1307.842163085938	-523.1938476562501	-242.2918090820313	1247.324462890625	-516.6076049804689	-249.0963134765626	1209.170288085938	-589.3045654296876	-32.43427658081055	1061.868041992188	-517.0271606445314	-70.5649871826172	1056.396850585938	-446.3757629394532	29.89343643188477	1009.739990234375	-471.6382141113282	-202.4490051269532	1077.125244140625	-959.1729125976565	-217.0503692626954	1089.053833007813	-714.1600952148439	-406.2701416015626	1156.664306640625	-844.8681640625002	-408.1791076660157	1123.046264648438	-871.3786621093752	-410.7832336425782	1125.64892578125	-813.6489257812502	-271.2899169921876	801.1038208007815	-1052.4208984375	-245.8126220703126	719.7323608398439	-1054.608276367188	-200.4764709472657	718.1967773437501	-1033.637451171875	-277.8869628906251	669.1987915039064	-1052.162841796875	-287.2538452148438	567.4733886718751	-1050.137451171875	-254.3071899414063	547.8773193359376	-927.5367431640627	-237.6148681640626	427.7798767089845	-1033.038696289063	-298.1786193847657	399.4782714843751	-1085.170532226563	-256.7554626464844	387.9732055664064	-1068.01025390625	-257.7028808593751	303.8643493652344	-1051.893920898438	-325.0400695800782	106.3924102783203	-1073.82275390625	-295.0684509277344	123.4966812133789	-987.5040283203127	-382.9791870117188	81.4275360107422	-1018.683715820313	-160.8189086914063	64.86716461181642	-1004.837219238281	-208.9530792236329	33.62056732177735	-1103.336669921875	-320.6499328613282	877.987731933594	-645.6316528320314	-283.7221069335938	822.7167968750002	-646.1911010742189	-250.9722595214844	823.8372192382815	-650.5017700195314	-313.2088012695313	745.1040039062501	-659.2713623046876	-312.5989990234376	563.8833007812501	-675.8817138671876	-272.8761596679688	547.6119995117189	-805.2022705078127	-280.0628051757813	352.8770751953126	-753.8847045898439	-325.4465026855469	280.4503784179688	-684.2280883789064	-291.8300781250001	270.2755126953126	-716.9334106445314	-305.0104064941407	225.5834655761719	-750.2449951171876	-372.2148132324219	123.0647125244141	-707.0398559570314	-343.2369079589844	141.3534698486328	-795.6940917968752	-439.6724243164064	103.1053924560547	-766.3618774414064	-228.8329315185547	60.11824417114259	-777.7690429687502	-223.9592437744141	60.96673965454103	-725.5964965820314	-274.4771728515626	29.61560058593751	-673.9729003906251	111.2608871459961	1121.067138671875	-1099.265747070313	nan	nan	nan	
373	1.86	-234.727035522461	1791.056518554688	-739.6320190429689	-389.5071716308595	1758.658325195313	-827.0549926757815	-210.483627319336	1798.599609375	-880.5223388671877	-407.3157958984376	1588.4482421875	-856.3048095703127	-402.3069763183595	1276.579345703125	-853.1040649414065	-252.3245086669922	1539.3798828125	-817.1591796875002	-243.6417999267579	1589.879150390625	-987.0493164062502	-198.5890045166016	1397.613159179688	-1119.849731445313	-149.773178100586	1407.642456054688	-1115.030639648438	-149.9143981933594	1349.084594726563	-1132.594848632813	-102.7089920043946	1297.597412109375	-1142.054931640625	-124.6641311645508	1252.325805664063	-1092.70703125	103.4076080322266	1126.635375976563	-1177.407836914063	206.4195251464844	1087.98828125	-1128.086669921875	-312.7189025878907	1580.29443359375	-650.6384277343751	-309.8066406250001	1360.3095703125	-539.1270751953126	-260.9850769042969	1366.774658203125	-537.5582275390626	-266.2823791503907	1309.621948242188	-521.5098876953126	-238.6494750976563	1249.033935546875	-514.6735839843751	-245.2823638916016	1210.653198242188	-587.3177490234376	-26.25129699707032	1066.396118164063	-515.5343627929689	-63.63849258422853	1060.922485351563	-444.6391906738282	37.06601333618165	1015.687133789063	-470.1668395996095	-203.0056457519532	1077.260375976563	-958.299499511719	-217.2498626708985	1089.10009765625	-713.2227783203126	-406.6098022460939	1156.5126953125	-843.5789184570315	-408.6450500488282	1123.118041992188	-870.151306152344	-411.0472717285157	1125.419921875	-812.5972900390627	-271.2644958496094	801.2448730468752	-1051.532836914063	-245.7016906738282	719.9279785156251	-1053.959350585938	-200.3975219726563	718.3345336914064	-1032.952270507813	-277.8407287597657	669.3986206054689	-1051.623901367188	-286.9813842773438	567.5313720703126	-1049.63818359375	-254.0127716064454	547.8837280273439	-927.0635986328127	-237.4147949218751	427.9976501464845	-1032.694213867188	-298.1969604492188	399.6120910644532	-1084.728271484375	-256.6865234375001	388.0400390625001	-1067.6865234375	-257.6330261230469	303.7689208984376	-1051.658447265625	-325.0282287597657	106.4992370605469	-1073.737548828125	-294.9644165039063	123.5666732788086	-987.4243164062502	-382.8551635742188	81.42996978759767	-1018.698608398438	-160.8022918701172	64.88659667968751	-1004.805725097656	-208.9128112792969	33.6139030456543	-1103.337768554688	-320.6758117675782	877.9259033203127	-644.8269653320314	-283.7530517578126	823.0420532226565	-645.6481323242189	-251.6838836669922	823.5535888671877	-649.4199829101564	-313.6376342773438	745.1004638671876	-658.6413574218751	-312.8693237304688	563.8045654296876	-675.2329101562501	-273.2321777343751	547.7645874023439	-804.5811157226565	-280.2800903320313	352.9925842285157	-753.3189697265626	-325.7968139648438	280.2276916503907	-683.8869628906251	-291.8369445800782	270.2118225097657	-716.5305175781251	-305.3562927246094	225.478012084961	-749.9316406250001	-372.4018859863282	122.9756240844727	-706.8837280273439	-343.2799377441407	141.3834381103516	-795.605895996094	-439.6792602539064	103.068588256836	-766.2814331054689	-228.7872161865235	60.12080383300783	-777.7247314453127	-223.9100189208985	60.97969436645509	-725.5366210937501	-274.5180358886719	29.4680519104004	-673.9389648437501	117.3129348754883	1127.3291015625	-1096.416137695313	nan	nan	nan	
374	1.865	-235.1425018310547	1791.264770507813	-738.7847290039064	-389.9254455566407	1758.802612304688	-826.199157714844	-211.140365600586	1798.505981445313	-879.6741333007815	-408.1840209960939	1588.323120117188	-855.1549072265627	-402.9650268554689	1276.410888671875	-851.7734375000002	-253.0502166748047	1539.47607421875	-816.0191650390627	-244.6175537109376	1589.934204101563	-985.8626708984377	-197.6835327148438	1398.646606445313	-1118.082641601563	-148.5123748779297	1409.290283203125	-1113.556396484375	-147.8518218994141	1350.773071289063	-1131.130981445313	-99.65760803222659	1299.999389648438	-1140.517944335938	-121.0774612426758	1254.375122070313	-1090.946533203125	108.9694137573242	1132.369506835938	-1174.176391601563	213.1770935058594	1096.502807617188	-1124.708740234375	-313.1947937011719	1580.451293945313	-649.6870117187501	-307.9607849121094	1361.328247070313	-537.4881591796876	-258.5877075195313	1368.310180664063	-536.3125610351564	-263.2621459960938	1310.987670898438	-519.8567504882814	-235.0402221679688	1251.03564453125	-512.8666381835939	-241.6057739257813	1212.147094726563	-585.2875976562501	-20.11499786376953	1071.072998046875	-514.2695312500001	-57.08754730224611	1065.384521484375	-442.8613281250001	44.36841201782227	1021.474975585938	-468.9708862304689	-203.400131225586	1077.198974609375	-957.3235473632815	-217.6348266601563	1088.91162109375	-712.2619018554689	-406.9725952148439	1156.713989257813	-842.5808105468752	-408.8872375488282	1123.027954101563	-869.079528808594	-411.3391723632814	1125.482788085938	-811.3148193359377	-271.2973022460938	801.2632446289065	-1050.72705078125	-245.7064361572266	719.9558105468751	-1053.161010742188	-200.2641296386719	718.5126953125001	-1032.307861328125	-277.6457214355469	669.4895019531251	-1050.979248046875	-286.9201965332032	567.6663208007814	-1049.135620117188	-253.8055114746094	547.9284667968751	-926.5114746093752	-237.1521911621094	428.2820739746095	-1032.400268554688	-298.0539855957032	399.708465576172	-1084.404052734375	-256.6621704101563	388.1854248046876	-1067.337768554688	-257.4723205566407	304.0408325195313	-1051.451904296875	-325.0456542968751	106.6241760253907	-1073.659423828125	-294.8297119140626	123.6950836181641	-987.335632324219	-382.8152465820313	81.44902801513673	-1018.657409667969	-160.826400756836	64.89845275878908	-1004.776184082031	-208.8980102539063	33.62950897216798	-1103.335205078125	-320.8870239257813	877.9014892578127	-644.0416259765626	-284.0573730468751	822.8630981445315	-644.8090209960939	-252.1618804931641	823.5729980468752	-648.5396118164064	-314.0132751464844	744.9902343750001	-657.8175048828126	-313.2013854980469	563.7274780273439	-674.4530639648439	-273.4893188476563	548.0230712890626	-803.915222167969	-280.3660888671876	352.9888610839844	-752.8385009765626	-325.9600219726563	280.1069335937501	-683.4206542968751	-291.9244995117188	270.2297973632813	-716.2660522460939	-305.4196472167969	225.4891662597657	-749.6333618164064	-372.4783020019532	122.9791946411133	-706.7445068359376	-343.2527160644532	141.3906555175782	-795.3350830078127	-439.6921997070314	103.064697265625	-766.2097167968751	-228.8321075439454	60.14725494384767	-777.686950683594	-223.9533843994141	60.93113327026369	-725.5038452148439	-274.5032348632813	29.2982292175293	-673.8361816406251	123.0578231811524	1133.978881835938	-1093.842895507813	nan	nan	nan	
375	1.87	-235.9053039550782	1791.1884765625	-737.7769775390626	-391.0572509765626	1758.874755859375	-824.8965454101565	-211.9087066650391	1798.5087890625	-878.6761474609377	-408.7884521484376	1588.21142578125	-853.8801879882815	-403.4232177734376	1276.314453125	-850.503845214844	-253.8236083984376	1539.487670898438	-814.8796386718752	-245.2542877197266	1590.197021484375	-984.6354980468752	-195.9168853759766	1399.721435546875	-1116.691040039063	-147.3813629150391	1410.9267578125	-1112.130859375	-145.8182678222657	1352.44384765625	-1129.571533203125	-96.56221771240237	1302.181274414063	-1139.032592773438	-117.2646179199219	1256.290405273438	-1089.151000976563	115.2498092651367	1138.439453125	-1171.228393554688	220.0424194335938	1105.2451171875	-1121.19140625	-313.7666931152344	1580.511108398438	-648.5599975585939	-305.7330932617188	1362.211059570313	-535.9249877929689	-256.5542297363282	1369.54931640625	-534.7841796875001	-260.6747741699219	1312.548583984375	-518.1798706054689	-231.2061309814454	1252.913452148438	-511.2249145507814	-237.5222625732422	1213.682250976563	-583.3018188476564	-14.07036590576172	1075.928100585938	-512.9104003906251	-50.31470108032228	1070.165649414063	-441.2909240722657	51.47520065307619	1027.375732421875	-467.7086791992189	-203.7950286865235	1077.49951171875	-956.3898925781252	-217.883773803711	1088.913818359375	-711.0908813476564	-407.4696350097657	1156.563232421875	-841.3100585937502	-409.300506591797	1123.013061523438	-867.800964355469	-411.6470336914064	1125.31884765625	-810.2529907226565	-271.3708801269532	801.4699707031252	-1050.139038085938	-245.8355255126954	720.1399536132814	-1052.556884765625	-200.2929687500001	718.6707153320314	-1031.618530273438	-277.5958862304688	669.5012207031251	-1050.311401367188	-286.7689208984376	567.8694458007814	-1048.755126953125	-253.5245361328126	547.3917846679689	-926.0155029296877	-237.0854034423829	428.5386047363282	-1032.086303710938	-297.8761901855469	399.8417968750001	-1084.026733398438	-256.5995178222657	388.3190917968751	-1066.983520507813	-257.4067382812501	304.1119384765626	-1051.209716796875	-325.0321655273438	106.672477722168	-1073.5947265625	-294.7752380371094	123.8200225830078	-987.2570800781252	-382.8687744140626	81.61300659179689	-1018.619262695313	-160.7482299804688	64.88492584228517	-1004.800354003906	-208.9612426757813	33.66748809814454	-1103.256958007813	-321.4567260742188	877.987976074219	-643.0683593750001	-285.0276184082032	823.241638183594	-643.0969238281251	-252.8565063476563	824.134948730469	-647.6111450195314	-314.4271850585938	745.0963134765626	-657.0749511718751	-313.6985473632813	563.7997436523439	-673.8007812500001	-273.9701232910157	547.9828491210939	-803.3203735351565	-280.5341186523438	353.0247192382813	-752.3833618164064	-326.0271606445313	280.0513305664063	-682.9829101562501	-292.1166992187501	270.0738525390626	-715.7760620117189	-305.6918334960938	225.1815490722657	-749.2660522460939	-372.5332336425782	122.9206085205078	-706.6612548828126	-343.1999206542969	141.3980255126953	-795.147155761719	-439.6596679687501	103.0683364868164	-766.1443481445314	-228.8179626464844	60.1991310119629	-777.6188964843752	-223.9362487792969	60.91214752197267	-725.4529418945314	-274.4396972656251	29.18622589111329	-673.8546752929689	128.9786071777344	1140.795043945313	-1091.393798828125	nan	nan	nan	
